<?xml version="1.0" standalone="no"?>
<!DOCTYPE svg PUBLIC "-//W3C//DTD SVG 20010904//EN"
 "http://www.w3.org/TR/2001/REC-SVG-20010904/DTD/svg10.dtd">
<svg version="1.0" xmlns="http://www.w3.org/2000/svg"
 width="500.000000pt" height="684.000000pt" viewBox="0 0 500.000000 684.000000"
 preserveAspectRatio="xMidYMid meet">

<g transform="translate(0.000000,684.000000) scale(0.100000,-0.100000)"
fill="#000000" stroke="none">
<path d="M3688 6463 l-3 -378 -343 -3 -343 -2 3 -78 3 -77 343 -3 342 -2 0
-500 0 -500 -1845 0 -1845 0 0 -2460 0 -2460 2500 0 2500 0 0 2460 0 2460
-570 0 -570 0 0 500 0 500 313 2 312 3 3 78 3 77 -316 0 -315 0 0 380 0 380
-85 0 -85 0 -2 -377z m2 -2618 l0 -945 85 0 85 0 0 945 0 945 505 0 505 0 0
-1150 0 -1150 -1210 0 -1210 0 0 1150 0 1150 620 0 620 0 0 -945z m-1824 318
c72 -146 96 -159 276 -149 101 6 119 4 124 -9 3 -8 -3 -65 -15 -127 -12 -62
-24 -130 -27 -152 -5 -37 -6 -38 -20 -18 -8 11 -29 29 -46 40 -77 47 -169 36
-230 -29 -37 -39 -38 -39 -68 -24 -25 13 -29 19 -20 35 15 27 12 117 -4 148
-19 36 -65 78 -99 91 -64 25 -141 9 -190 -37 -42 -40 -57 -75 -57 -134 0 -67
24 -114 79 -152 33 -24 52 -30 97 -30 l56 -1 -6 -30 c-3 -16 -9 -76 -12 -131
-7 -99 -6 -102 15 -109 29 -9 56 16 118 107 l46 68 35 -40 c19 -22 47 -47 63
-55 39 -21 117 -19 162 4 34 17 37 17 33 3 -3 -10 -14 -53 -26 -97 -80 -290
-240 -549 -438 -707 -71 -56 -201 -138 -220 -138 -5 0 -13 15 -16 34 -13 69
-61 72 -80 6 l-10 -33 -11 33 c-14 42 -41 62 -56 40 -5 -8 -15 -34 -21 -57
l-12 -43 -248 0 -249 0 38 58 c157 243 190 297 228 372 66 131 95 235 95 338
0 127 -11 155 -86 226 -44 42 -64 68 -64 84 0 30 121 157 260 274 118 99 154
124 255 177 69 35 89 52 145 122 67 83 124 131 150 127 8 -2 33 -40 56 -85z
m-153 -247 c72 -30 102 -100 74 -169 -30 -70 -118 -98 -184 -57 -90 55 -78
181 22 226 38 17 49 17 88 0z m415 -216 c34 -21 62 -72 62 -113 0 -35 -40 -89
-80 -110 -61 -31 -134 -5 -164 58 -20 42 -20 78 -1 116 34 64 120 87 183 49z
m-292 -101 c18 -20 18 -21 -10 -74 -58 -112 -94 -111 -76 1 14 90 46 117 86
73z m-841 -152 c23 -13 52 -42 70 -71 27 -45 30 -57 29 -130 -1 -140 -54 -256
-296 -645 -224 -358 -327 -504 -379 -531 -62 -34 -63 66 -4 329 93 413 255
759 472 1009 30 34 58 62 61 62 4 0 25 -10 47 -23z m-665 -1099 c0 -13 -7 -93
-15 -180 -12 -144 -16 -162 -49 -230 -47 -95 -53 -174 -16 -213 35 -37 89 -48
218 -43 l113 4 117 61 c64 33 155 72 202 87 118 36 142 53 185 133 108 196
205 325 247 327 14 1 27 10 33 24 13 29 29 28 43 -3 17 -37 41 -31 60 15 l17
40 418 0 c325 0 419 -3 422 -12 3 -7 6 -514 7 -1126 l3 -1112 -1107 0 -1108 0
0 1125 0 1125 105 0 c102 0 105 -1 105 -22z m565 -92 c0 -97 3 -117 18 -134
24 -27 43 -19 59 24 l12 34 14 -34 c7 -19 20 -37 27 -40 39 -15 71 101 55 202
-6 31 -10 58 -10 60 0 1 50 2 110 2 61 0 110 -2 110 -4 0 -3 -22 -34 -49 -69
-26 -35 -86 -124 -131 -196 -46 -73 -99 -145 -117 -160 -18 -15 -63 -38 -101
-50 -37 -13 -128 -53 -202 -90 -127 -63 -138 -66 -215 -69 -107 -4 -156 13
-171 59 -8 22 -8 42 -2 59 5 14 82 97 171 185 105 103 184 191 222 247 l60 87
70 0 70 1 0 -114z m104 102 c0 -7 -4 -22 -9 -33 -7 -16 -9 -17 -9 -3 -1 9 -4
23 -7 32 -4 11 -1 16 10 16 9 0 16 -6 15 -12z m1521 -425 c1 -458 7 -538 50
-624 62 -124 175 -179 365 -179 96 0 173 14 227 41 l36 19 7 -88 c22 -303 81
-423 234 -484 48 -19 75 -22 191 -22 156 -1 213 16 290 82 24 20 42 30 39 22
-3 -8 -37 -142 -74 -297 l-69 -283 -683 0 -683 0 0 1120 0 1120 35 0 35 0 0
-427z m510 -35 c0 -421 -2 -466 -18 -498 -33 -67 -103 -75 -146 -16 -20 27
-21 41 -24 502 l-3 474 96 0 95 0 0 -462z m1840 -658 l0 -1120 -35 0 c-28 0
-36 5 -40 23 -3 12 -68 280 -145 596 -77 316 -140 576 -140 578 0 2 -91 2
-202 1 l-202 -3 -32 -130 c-17 -71 -32 -120 -33 -107 -1 22 -2 22 -155 22
l-154 0 -4 -107 c-3 -77 -9 -117 -21 -141 -39 -73 -121 -60 -153 24 -17 44
-19 79 -19 329 0 154 4 301 8 327 15 86 76 130 136 98 28 -15 35 -37 41 -140
l5 -95 154 -3 154 -3 -5 108 c-4 91 -9 118 -33 171 -48 106 -128 161 -268 183
-121 19 -274 -6 -351 -56 l-26 -17 0 291 0 291 760 0 760 0 0 -1120z m-515
-435 l42 -245 -90 0 c-87 0 -89 0 -84 22 4 12 23 125 44 250 20 125 39 225 42
222 3 -2 23 -115 46 -249z m92 -565 c21 -133 37 -120 -142 -120 l-155 0 5 23
c3 12 10 53 15 91 6 38 13 73 16 78 3 5 60 7 127 6 l122 -3 12 -75z"/>
</g>
</svg>
